<?xml version="1.0" standalone="no"?><!DOCTYPE svg PUBLIC "-//W3C//DTD SVG 1.1//EN"
        "http://www.w3.org/Graphics/SVG/1.1/DTD/svg11.dtd">
<svg t="1666519636712" class="icon" viewBox="0 0 1024 1024" version="1.1" xmlns="http://www.w3.org/2000/svg" p-id="5035"
     xmlns:xlink="http://www.w3.org/1999/xlink" width="128" height="128">
    <path d="M512 981.333333C252.8 981.333333 42.666667 771.2 42.666667 512S252.8 42.666667 512 42.666667s469.333333 210.133333 469.333333 469.333333-210.133333 469.333333-469.333333 469.333333z m36.394667-283.093333l80.810666 48.085333c19.968 11.904 34.602667 2.688 32.426667-20.736l-9.130667-98.048c-2.218667-23.509333 8.96-56.277333 24.96-73.386666l61.610667-66.005334c16.128-17.322667 10.410667-34.986667-12.373333-39.850666l-88.064-18.858667c-23.04-4.949333-50.176-25.941333-61.098667-47.018667l-45.738667-88.234666c-10.965333-21.205333-28.672-21.077333-39.594666 0l-45.738667 88.234666c-10.965333 21.162667-38.314667 42.112-61.098667 47.018667l-88.064 18.858667c-23.04 4.949333-28.373333 22.698667-12.373333 39.850666l61.610667 66.005334c16.128 17.28 27.136 49.962667 24.96 73.386666l-9.130667 98.048c-2.218667 23.509333 12.330667 32.725333 32.426667 20.736l80.810666-48.085333c19.968-11.904 52.693333-11.946667 72.789334 0z"
          p-id="5036" fill="#efb336"></path>
</svg>