<?xml version="1.0" standalone="no"?><!DOCTYPE svg PUBLIC "-//W3C//DTD SVG 1.1//EN"
        "http://www.w3.org/Graphics/SVG/1.1/DTD/svg11.dtd">
<svg t="1665744780663" class="icon" viewBox="0 0 1024 1024" version="1.1" xmlns="http://www.w3.org/2000/svg"
     p-id="10720" xmlns:xlink="http://www.w3.org/1999/xlink" width="200" height="200">
    <path d="M819.13 382.43c0-33.38-10.72-61.1-30.99-80.19-53.09-49.96-161.59-32.14-276.28 36.9-114.7-69.08-223.22-86.91-276.34-36.9-20.27 19.09-30.99 46.82-30.99 80.19 0 52.37 25.02 116.22 69.11 181.28-44.09 65.06-69.11 128.91-69.11 181.28 0 33.38 10.72 61.1 30.99 80.19 20.56 19.34 49.42 28.54 83.71 28.54 54.32 0 122.29-23.09 192.59-65.42 70.3 42.34 138.28 65.42 192.6 65.42 34.29 0 63.15-9.2 83.71-28.54 20.27-19.09 30.99-46.82 30.99-80.19 0-52.37-25.02-116.22-69.11-181.28 44.11-65.06 69.12-128.91 69.12-181.28z m-54.4-55.32c13.44 12.64 20.26 31.26 20.26 55.32 0 42.61-20.53 96.08-56.38 151.56-24.5-32.09-53.4-64.1-86-94.79-32.13-30.24-65.29-56.78-98.32-79.27 94.4-53.44 181.4-69.52 220.44-32.82z m-56.66 236.6c-24.78 33.7-54.78 67.55-88.87 99.63-34.73 32.69-71.25 61.12-107.38 84.46-36.12-23.35-72.63-51.77-107.36-84.46-34.09-32.08-64.09-65.94-88.87-99.63 24.78-33.7 54.78-67.55 88.87-99.63 34.73-32.69 71.25-61.11 107.37-84.46 36.12 23.34 72.64 51.77 107.37 84.46 34.09 32.08 64.09 65.93 88.87 99.63z m-469.4-181.28c0-24.06 6.82-42.68 20.26-55.32 14.34-13.5 35.14-19.86 60.42-19.86 43.53 0 100.31 18.86 160.04 52.69-33.04 22.48-66.2 49.02-98.34 79.25-32.6 30.69-61.5 62.7-86 94.79-35.84-55.47-56.38-108.94-56.38-151.55z m20.26 417.87c-13.44-12.64-20.26-31.26-20.26-55.32 0-42.61 20.53-96.08 56.38-151.56 24.5 32.09 53.4 64.1 86 94.79 32.13 30.24 65.29 56.78 98.32 79.26-94.41 53.47-181.41 69.55-220.44 32.83z m526.06-55.31c0 24.06-6.82 42.68-20.26 55.32-39 36.78-126.02 20.68-220.46-32.82 33.04-22.48 66.2-49.03 98.34-79.27 32.6-30.69 61.5-62.7 86-94.79 35.84 55.48 56.38 108.95 56.38 151.56z"
          fill="#1A77E0" p-id="10721"></path>
    <path d="M511.5 546.5m-68.5 0a68.5 68.5 0 1 0 137 0 68.5 68.5 0 1 0-137 0Z" fill="#29CCB6" p-id="10722"></path>
</svg>