<?xml version="1.0" standalone="no"?><!DOCTYPE svg PUBLIC "-//W3C//DTD SVG 1.1//EN"
        "http://www.w3.org/Graphics/SVG/1.1/DTD/svg11.dtd">
<svg t="1666517911903" class="icon" viewBox="0 0 1024 1024" version="1.1" xmlns="http://www.w3.org/2000/svg" p-id="5052"
     width="128" height="128">
    <path d="M498.986667 580.47999967h26.026666v173.013334h-26.026666z" fill="#FFAF37" p-id="5053"></path>
    <path d="M513.493333 725.33333367a37.76 37.76 0 1 0-37.76-37.76A37.76 37.76 0 0 0 513.493333 725.33333367z m0-49.493334a11.733333 11.733333 0 1 1-11.733333 11.733334 11.733333 11.733333 0 0 1 11.733333-11.093334zM561.493333 753.70666667h-100.053333a17.28 17.28 0 0 0-17.28 17.28v51.413333h134.613333v-51.413333a17.28 17.28 0 0 0-17.28-17.28zM453.973333 853.33333367a13.013333 13.013333 0 0 0-13.013333 13.013333v108.586667a13.013333 13.013333 0 0 0 13.013333 13.013333 13.013333 13.013333 0 0 0 13.013334-13.013333v-108.16a13.013333 13.013333 0 0 0-13.013334-13.44zM512 853.33333367a13.013333 13.013333 0 0 0-13.013333 13.013333v108.586667a13.013333 13.013333 0 0 0 13.013333 13.013333 13.013333 13.013333 0 0 0 13.013333-13.013333v-108.16A13.013333 13.013333 0 0 0 512 853.33333367zM570.24 853.33333367a13.013333 13.013333 0 0 0-13.013333 13.013333v108.586667a13.013333 13.013333 0 0 0 26.026666 0v-108.16a13.013333 13.013333 0 0 0-13.013333-13.44zM551.253333 95.78666667a37.76 37.76 0 0 0-26.24-35.84V14.93333367a13.013333 13.013333 0 1 0-26.026666 0v45.866666a37.76 37.76 0 0 0 0 69.76v106.666667a13.013333 13.013333 0 0 0 26.026666 0v-106.666667a37.76 37.76 0 0 0 26.24-34.773333z m-26.24 0z"
          fill="#FFAF37" p-id="5054"></path>
    <path d="M592.213333 518.82666667l-213.333333-213.333333a84.053333 84.053333 0 0 1 118.826667-119.04l203.946666 204.16L664.96 426.66666667l-204.16-203.306667a32 32 0 1 0-45.226667 45.226667l213.333334 213.333333z"
          fill="#C70F0F" p-id="5055"></path>
    <path d="M805.76 329.17333367a66.986667 66.986667 0 0 0-49.92-18.986667c-32.426667 1.92-61.013333 27.733333-84.266667 53.546667l-42.666666-42.666667 23.68-23.68a84.053333 84.053333 0 0 0-6.4-124.586667 86.613333 86.613333 0 0 0-112.853334 7.893334l-120.106666 119.893333c-14.293333 14.08-28.586667 28.16-42.666667 42.666667-7.253333 7.253333-14.293333 14.506667-21.333333 21.333333a120.106667 120.106667 0 0 0-51.84-30.933333 86.826667 86.826667 0 0 0-89.6 31.786666 79.36 79.36 0 0 0 3.413333 97.066667 77.653333 77.653333 0 0 0 103.253333 9.813333 212.053333 212.053333 0 0 0 35.84-32.64l5.12 4.906667 38.613334 38.826667-22.613334 22.4a84.053333 84.053333 0 0 0 5.546667 123.946666 80.853333 80.853333 0 0 0 52.48 18.773334 91.306667 91.306667 0 0 0 64-26.666667l19.626667-19.626667 14.293333 14.293334a83.84 83.84 0 0 0 59.52 24.533333 82.986667 82.986667 0 0 0 59.306667-24.533333 84.053333 84.053333 0 0 0 0-118.826667l-14.293334-14.506667 42.666667-42.666666 1.92-1.706667a102.613333 102.613333 0 0 0 101.333333 32.426667 81.066667 81.066667 0 0 0 48-42.666667 90.666667 90.666667 0 0 0-20.053333-99.413333z m-521.386667 100.266666a26.88 26.88 0 0 1-34.56 0 27.093333 27.093333 0 0 1 0-32.213333 33.92 33.92 0 0 1 26.88-12.8 30.293333 30.293333 0 0 1 7.68 1.066667 69.76 69.76 0 0 1 29.013334 18.133333 179.413333 179.413333 0 0 1-29.013334 25.813333zM613.973333 213.33333367a31.573333 31.573333 0 0 1 2.56 47.36l-23.253333 23.253333-44.586667-45.44 21.333334-21.333333a34.133333 34.133333 0 0 1 43.946666-3.84z m-124.586666 292.906666l-22.4-22.613333L512 438.61333367l45.226667 45.013333L512 528.85333367z m-104.32-104.32c7.04-7.466667 14.08-14.933333 21.333333-21.333333l23.466667-23.253333 45.226666 45.226666L430.08 447.99999967l-13.013333-13.013333zM466.773333 319.99999967L512 274.77333367c14.933333 15.146667 29.866667 30.293333 44.586667 45.653333L512 364.79999967z m-11.306666 265.813334a34.986667 34.986667 0 0 1-45.866667 4.906666 32 32 0 0 1-11.52-23.253333 32.213333 32.213333 0 0 1 9.386667-23.893333l22.613333-22.613334 22.4 22.613334 22.613333 22.613333z m152.96-50.346667a31.36 31.36 0 0 1 10.24 21.973333 31.786667 31.786667 0 0 1-54.4 22.613334l-14.293334-14.293334 45.013334-45.226666z m27.52-130.133333l-42.666667 42.666666-45.013333-45.226666 43.946666-43.946667 44.586667 45.653333z m140.8 2.56a29.866667 29.866667 0 0 1-16.64 15.36c-15.786667 5.12-36.053333-7.253333-49.706667-21.333334a6.4 6.4 0 0 0-1.706667-1.706666C725.333333 382.50666667 744.746667 362.66666667 759.04 362.66666667a15.146667 15.146667 0 0 1 10.88 4.906667 38.826667 38.826667 0 0 1 6.826667 39.893333z"
          fill="#C70F0F" p-id="5056"></path>
</svg>