<?xml version="1.0" standalone="no"?><!DOCTYPE svg PUBLIC "-//W3C//DTD SVG 1.1//EN"
        "http://www.w3.org/Graphics/SVG/1.1/DTD/svg11.dtd">
<svg t="1665744593533" class="icon" viewBox="0 0 1024 1024" version="1.1" xmlns="http://www.w3.org/2000/svg" p-id="7591"
     width="200" height="200">
    <path d="M505.34 221.87c-9.91 0-17.93-8.04-17.93-17.95V96.25c0-9.91 8.02-17.94 17.93-17.94 9.93 0 17.95 8.03 17.95 17.94v107.67c0 9.91-8.02 17.95-17.95 17.95zM505.34 939.67s0.02 0 0 0c-9.88 0-17.93-8.03-17.93-17.94V814.06c0-9.91 8.04-17.95 17.95-17.95s17.93 8.04 17.93 17.95v107.67c0 9.91-8.02 17.94-17.95 17.94z"
          fill="#F6BB42" p-id="7592"></path>
    <path d="M302.32 305.96c-7.02 7.01-18.37 7.01-25.37 0l-76.15-76.14c-6.99-7-6.99-18.36 0-25.37 7.02-7.02 18.37-7.02 25.39 0l76.13 76.13c7.02 7.01 7.02 18.38 0 25.38zM809.9 813.52c-7.02 7.02-18.38 7.02-25.39 0l-76.13-76.13c-7.02-7.01-7.02-18.38 0-25.38 7.02-7.01 18.37-7.01 25.39 0l76.13 76.14c6.99 7 6.99 18.36 0 25.37z"
          fill="#FFCE54" p-id="7593"></path>
    <path d="M218.23 508.99c0 9.91-8.04 17.94-17.95 17.94H92.61c-9.91 0-17.93-8.03-17.95-17.94 0-9.91 8.04-17.94 17.95-17.94h107.67c9.91 0 17.95 8.02 17.95 17.94zM936.02 508.99c0 9.91-8.02 17.94-17.93 17.94H810.42c-9.91 0-17.95-8.03-17.95-17.94 0-9.91 8.04-17.94 17.95-17.94h107.67c9.91 0 17.93 8.02 17.93 17.94z"
          fill="#F6BB42" p-id="7594"></path>
    <path d="M302.32 712.01c7.02 7 7.02 18.37 0 25.38l-76.13 76.13c-7.02 7.02-18.37 7.02-25.39 0-6.99-7.01-6.99-18.36 0-25.37l76.15-76.14c7-7.01 18.36-7.01 25.37 0zM809.9 204.44c0 0.01 0 0 0 0 6.99 7.02 6.99 18.38 0 25.38l-76.15 76.14c-6.99 7.01-18.35 7.01-25.37 0-7.02-7-7.02-18.37 0-25.38l76.13-76.14c7.01-7 18.37-7 25.39 0z"
          fill="#FFCE54" p-id="7595"></path>
    <path d="M505.34 742.27c-128.62 0-233.27-104.65-233.27-233.28S376.72 275.7 505.34 275.7c128.65 0 233.29 104.65 233.29 233.28S633.98 742.27 505.34 742.27z"
          fill="#FFCE54" p-id="7596"></path>
    <path d="M505.34 257.75c-138.74 0-251.22 112.48-251.22 251.24S366.6 760.22 505.34 760.22c138.77 0 251.25-112.48 251.25-251.23S644.1 257.75 505.34 257.75z m152.27 403.5c-40.66 40.68-94.74 63.08-152.28 63.08-57.52 0-111.59-22.4-152.25-63.08C312.42 620.59 290 566.5 290 508.99s22.42-111.6 63.09-152.26c40.66-40.68 94.74-63.08 152.25-63.08 57.54 0 111.61 22.4 152.28 63.08 40.67 40.66 63.06 94.75 63.06 152.26s-22.4 111.6-63.07 152.26z"
          fill="#F6BB42" p-id="7597"></path>
</svg>