<?xml version="1.0" standalone="no"?><!DOCTYPE svg PUBLIC "-//W3C//DTD SVG 1.1//EN"
        "http://www.w3.org/Graphics/SVG/1.1/DTD/svg11.dtd">
<svg t="1665744644144" class="icon" viewBox="0 0 1024 1024" version="1.1" xmlns="http://www.w3.org/2000/svg" p-id="9562"
     xmlns:xlink="http://www.w3.org/1999/xlink" width="200" height="200">
    <path d="M411.2 128.7m-30.5 0a30.5 30.5 0 1 0 61 0 30.5 30.5 0 1 0-61 0Z" p-id="9563"></path>
    <path d="M126.5 616.6m-30.5 0a30.5 30.5 0 1 0 61 0 30.5 30.5 0 1 0-61 0Z" p-id="9564"></path>
    <path d="M289.2 860.6m-30.5 0a30.5 30.5 0 1 0 61 0 30.5 30.5 0 1 0-61 0Z" fill="#B76BF9" p-id="9565"></path>
    <path d="M919.5 250.6m-30.5 0a30.5 30.5 0 1 0 61 0 30.5 30.5 0 1 0-61 0Z" fill="#B76BF9" p-id="9566"></path>
    <path d="M756.8 433.6m-30.5 0a30.5 30.5 0 1 0 61 0 30.5 30.5 0 1 0-61 0Z" p-id="9567"></path>
    <path d="M716.2 840.3m-30.5 0a30.5 30.5 0 1 0 61 0 30.5 30.5 0 1 0-61 0Z" fill="#B76BF9" p-id="9568"></path>
    <path d="M559.6 469.9c14.2-83.5 65.9-151.2 134.8-189.1-35.7-24.9-77.2-42.8-123-50.6-166.1-28.2-323.6 83.6-351.9 249.6S303 803.4 469.1 831.6c93.7 15.9 184.7-12.8 251.3-70.6-112.5-46.6-182.1-166-160.8-291.1z"
          fill="#8A61FF" p-id="9569"></path>
</svg>